<svg width="934" height="934" viewBox="0 0 934 934" fill="none" xmlns="http://www.w3.org/2000/svg">
<path d="M752.195 160.625H309.941V305.358H752.195V160.625ZM734.965 289.281H327.165V177.854H736.112L736.117 289.281H734.965Z" fill="black"/>
<path d="M227.233 94C205.411 94 188.176 112.38 188.176 134.203V640.789C188.176 653.425 177.837 663.763 165.203 663.763C152.567 663.763 142.229 653.424 142.229 640.789V354.763H125V639.643C125 661.471 143.38 679.845 165.203 679.845C187.031 679.845 205.405 661.465 205.405 639.643L205.411 134.203C205.411 121.567 215.749 111.229 228.384 111.229C241.019 111.229 251.357 121.568 251.357 134.203V782.083L314.535 840.667L368.524 790.125L422.513 840.667L476.503 790.125L530.492 840.672L584.481 790.131L638.471 840.672L692.46 790.131L746.449 840.672L809.627 782.088L809.632 94.008L227.233 94ZM792.407 775.187L746.459 817.687L692.469 767.145L638.48 817.692L584.491 767.151L530.496 817.692L476.507 767.151L421.371 817.692L367.381 767.151L313.392 817.692L267.444 775.192V134.205C267.444 126.164 265.147 118.123 260.553 111.232H793.553L793.548 775.192L792.407 775.187Z" fill="black"/>
<path d="M307.648 547.747H752.195V564.976H307.648V547.747Z" fill="#FFB71B"/>
<path d="M307.648 610.92H709.702V628.149H307.648V610.92Z" fill="#FFB71B"/>
<path d="M475.352 674.106H492.581V691.336H475.352V674.106Z" fill="black"/>
<path d="M350.141 674.106H367.37V691.336H350.141V674.106Z" fill="black"/>
<path d="M391.5 674.106H408.729V691.336H391.5V674.106Z" fill="black"/>
<path d="M434.008 674.106H451.237V691.336H434.008V674.106Z" fill="black"/>
<path d="M517.859 674.106H535.089V691.336H517.859V674.106Z" fill="black"/>
<path d="M307.648 674.106H324.878V691.336H307.648V674.106Z" fill="black"/>
<path d="M559.207 674.106H576.436V691.336H559.207V674.106Z" fill="black"/>
<path d="M601.715 674.106H618.944V691.336H601.715V674.106Z" fill="black"/>
<path d="M587.928 337.52H307.648V470.771L587.928 470.776V337.52ZM570.699 453.541H324.872V354.749H570.699V453.541Z" fill="#FFB71B"/>
<path d="M752.192 470.787V337.532H614.352V470.783L752.192 470.787ZM631.577 354.766H736.108V453.558H631.577V354.766Z" fill="#FFB71B"/>
</svg>
