<svg width="934" height="934" viewBox="0 0 934 934" fill="none" xmlns="http://www.w3.org/2000/svg">
<path d="M275.508 224.188H581.068V241.418H275.508V224.188Z" fill="black"/>
<path d="M275.508 312.635H484.575V329.864H275.508V312.635Z" fill="black"/>
<path d="M275.508 401.088H462.748V418.317H275.508V401.088Z" fill="black"/>
<path d="M275.508 488.395H508.695V505.624H275.508V488.395Z" fill="black"/>
<path d="M275.508 576.848H445.521V594.077H275.508V576.848Z" fill="black"/>
<path d="M710.867 544.675L753.367 671.035L786.679 628.535L838.372 640.024L790.127 496.438C802.763 495.287 813.1 488.396 819.991 476.911C825.736 467.724 826.882 457.384 823.439 447.047C822.288 442.453 819.991 437.86 816.548 433.26C830.335 427.516 840.674 413.734 840.674 397.651C840.674 381.568 831.486 367.787 816.548 362.042C825.736 349.406 826.887 333.323 818.845 318.391C810.804 304.604 795.872 297.714 779.788 298.864C779.788 294.271 779.788 288.526 778.637 283.932C776.34 273.594 769.449 265.552 760.257 259.807C746.47 251.765 729.241 252.916 716.606 262.104C712.012 250.614 701.674 242.577 689.038 239.131V200.073C689.038 162.167 658.022 131.152 621.262 130H168.662H162.917C125.016 132.286 94 163.303 94 202.36V480.347L216.912 482.644V734.217C216.912 772.124 247.928 804.29 286.985 804.29H737.279C771.743 804.29 798.159 776.722 798.159 739.962V718.134V710.093L691.331 710.098V556.165C698.221 553.868 705.117 550.42 710.857 544.675L710.867 544.675ZM813.107 618.196L779.795 611.3L759.118 636.571L725.806 537.779C737.295 542.373 749.931 542.373 760.27 535.482C768.311 530.888 774.056 523.992 777.499 515.955L813.107 618.196ZM216.92 465.409L111.238 463.113V202.353C111.238 173.634 135.363 149.514 164.076 149.514C192.795 149.514 216.915 173.639 216.915 202.353L216.92 465.409ZM285.842 785.903C257.123 785.903 233.003 761.777 233.003 733.064V202.357C233.003 181.68 223.816 162.155 208.878 149.519H621.264C649.983 149.519 674.103 173.644 674.103 202.357V241.415C661.468 243.712 651.13 252.904 646.535 264.388C633.9 255.201 616.671 254.05 602.884 262.091C589.098 270.133 582.207 285.065 583.358 301.149C568.426 299.997 552.342 306.893 544.3 320.675C536.259 334.462 537.41 351.691 546.597 363.175C532.811 368.92 522.472 382.702 522.472 398.785C522.472 414.867 531.659 428.649 546.597 434.394C537.41 447.029 536.259 463.113 544.3 478.045C550.045 488.383 561.53 495.274 573.019 497.571L523.623 641.158L575.316 629.668L608.628 672.168L651.128 544.663C656.873 550.408 663.764 555.001 671.806 557.298V710.085L346.726 710.096L335.236 711.241L337.533 720.429C338.684 723.877 339.83 730.767 339.83 734.215C338.684 762.934 314.559 785.909 285.841 785.909L285.842 785.903ZM585.655 514.81C589.103 522.851 594.843 530.892 602.884 535.487C613.223 541.232 625.858 542.377 636.196 537.784L602.884 635.424L583.358 611.298L551.191 618.189L585.655 514.81ZM779.788 726.169V738.805C779.788 766.373 761.408 785.904 736.138 785.904L331.791 785.898C346.723 773.263 355.916 753.732 355.916 733.06V726.169L779.788 726.169ZM682.148 540.076C669.513 540.076 660.32 529.738 660.32 518.248V515.951V513.654V512.503L654.576 511.352L643.086 509.055C643.086 510.206 643.086 510.206 641.935 511.352C641.935 512.503 640.784 513.649 640.784 513.649C635.039 523.988 621.257 527.436 610.92 521.691C600.581 515.946 597.133 502.164 602.878 490.675C602.878 489.524 604.029 489.524 605.175 488.378C605.175 488.378 606.326 487.227 607.472 486.081L594.837 474.591C594.837 474.591 593.686 475.742 592.54 475.742C591.389 475.742 591.389 476.893 590.243 476.893C579.904 482.638 566.117 479.19 560.379 468.852C554.634 458.513 558.082 444.726 568.42 438.988C569.572 438.988 570.717 437.837 570.717 437.837C571.868 437.837 573.014 436.686 574.165 436.686L569.572 420.603C568.42 420.603 567.275 420.603 566.124 421.754H563.827C551.191 421.754 541.999 411.415 541.999 399.926C541.999 387.291 552.337 378.098 563.827 378.098H566.124H567.275H568.426L573.019 362.015H571.868C570.717 362.015 570.717 362.015 569.572 360.864C568.42 360.864 567.275 359.713 567.275 359.713C556.936 353.968 553.488 340.187 559.233 329.849C564.978 319.511 578.76 316.063 590.249 321.808C591.4 321.808 591.4 322.959 592.546 322.959C593.697 322.959 593.697 324.11 594.843 325.256L607.478 313.766L605.181 311.469C605.181 310.318 604.03 310.318 604.03 309.172C598.286 298.834 601.733 285.047 612.072 279.308C622.41 273.563 636.197 277.011 641.936 287.35C641.936 288.501 643.087 289.647 643.087 289.647C643.087 290.798 644.238 291.944 644.238 293.095L660.321 288.501C660.321 287.35 660.321 286.204 659.17 285.053V282.756C659.17 270.121 669.508 260.928 680.998 260.928C693.633 260.928 702.826 271.267 702.826 282.756V285.053V291.944L717.758 296.537L721.205 289.647C721.205 288.496 722.357 287.35 722.357 287.35C728.101 277.011 741.883 273.563 752.221 279.308C756.814 282.756 761.408 287.35 762.559 293.095C763.71 298.84 763.71 304.584 760.262 310.324C760.262 311.475 759.111 311.475 759.111 312.621C759.111 313.772 757.96 313.772 757.96 314.918L756.809 316.069L769.444 327.559C769.444 327.559 770.596 326.408 771.741 326.408C772.892 326.408 772.892 325.257 774.038 325.257C784.377 319.512 798.164 322.96 803.902 333.298C809.647 343.637 806.199 357.424 795.861 363.162C794.71 363.162 793.564 364.313 793.564 364.313C792.413 364.313 791.267 365.464 790.116 365.464L794.71 381.547C795.861 381.547 797.007 381.547 798.157 380.396H800.454C813.09 380.396 822.282 390.734 822.282 402.224C822.282 414.859 811.944 424.052 800.454 424.052H798.157L787.819 422.901V432.088L785.522 438.979L792.413 442.427C793.564 442.427 794.71 443.578 794.71 443.578C799.303 447.026 803.897 451.62 805.048 457.365C806.199 463.109 806.199 468.854 802.751 474.594C797.006 484.932 783.225 488.381 771.735 482.636C770.584 482.636 770.584 481.484 769.438 480.339L767.141 478.042L755.652 490.677L756.803 491.828C756.803 492.979 757.954 492.979 757.954 494.125C763.699 504.464 760.251 518.25 749.912 523.989C739.574 529.734 725.787 526.286 720.048 515.948C720.048 514.796 718.897 513.651 718.897 513.651C718.897 512.5 717.746 511.354 717.746 510.203L701.664 514.796C701.664 515.947 701.664 517.093 702.815 518.244V520.541C705.122 529.739 694.783 540.077 682.148 540.077L682.148 540.076Z" fill="black"/>
<path d="M759.121 398.795C759.121 356.295 724.657 321.831 682.157 321.831C639.657 321.831 605.193 356.295 605.193 398.795C605.193 441.295 639.657 475.759 682.157 475.759C724.657 475.759 759.121 441.295 759.121 398.795ZM682.157 458.53C648.845 458.53 622.423 430.962 622.423 398.795C622.423 366.628 649.991 339.06 682.157 339.06C715.469 339.06 741.892 366.628 741.892 398.795C741.887 430.956 715.471 458.53 682.157 458.53Z" fill="#FFB71B"/>
</svg>
