<svg width="934" height="934" viewBox="0 0 934 934" fill="none" xmlns="http://www.w3.org/2000/svg">
<path d="M580.867 250.538L593.084 264.565L550.722 313.2L538.504 299.173L580.867 250.538Z" fill="#FFB71B"/>
<path d="M459.359 200H476.639V268.778H459.359V200Z" fill="#FFB71B"/>
<path d="M299.211 383.839H359.119V403.677H299.211V383.839Z" fill="#FFB71B"/>
<path d="M575.703 383.839H635.611V403.677H575.703V383.839Z" fill="#FFB71B"/>
<path d="M353.675 249.71L396.043 298.345L383.825 312.377L341.457 263.743L353.675 249.71Z" fill="#FFB71B"/>
<path d="M372.611 734.707L355.363 733.454L359.438 659.538L376.685 660.791L372.611 734.707Z" fill="black"/>
<path d="M562.096 733.97L558.043 660.054L575.29 658.807L579.344 732.723L562.096 733.97Z" fill="black"/>
<path d="M467.42 494.941C511.197 494.941 546.91 453.94 546.91 403.681C546.91 353.422 511.197 312.422 467.42 312.422C423.642 312.422 387.93 353.422 387.93 403.681C387.93 453.934 423.642 494.941 467.42 494.941ZM467.42 330.936C501.984 330.936 530.781 362.678 530.781 403.678C530.781 444.679 503.133 476.42 467.42 476.42C432.856 476.42 404.059 444.679 404.059 403.678C404.059 362.678 432.856 330.936 467.42 330.936Z" fill="#FFB71B"/>
<path d="M836.074 644.407C836.074 632.504 832.616 620.6 826.86 607.371C821.098 594.142 810.73 584.888 798.058 579.593L753.125 561.076L713.954 644.401H703.586L664.415 561.076L622.945 578.281C621.791 575.636 620.642 572.991 619.487 570.347C611.422 554.473 598.75 542.569 582.621 535.962L526.171 512.154L475.482 620.607H458.203L407.515 512.154L351.065 535.962C334.935 542.576 322.263 554.479 314.198 570.347C313.044 572.991 311.894 575.636 310.74 578.281L269.265 561.088L230.095 644.414H219.726L180.555 561.088L136.778 579.601C124.106 584.89 113.738 594.149 107.976 607.379C102.214 619.282 98.7615 632.511 98.7615 643.09C98.7615 643.09 94.1544 689.379 93 733.031L110.279 734.356C111.434 690.705 116.041 645.734 116.041 644.409C116.041 633.831 119.499 624.572 122.952 617.958C127.559 610.024 134.475 602.084 142.535 599.441L173.641 586.212L210.508 665.567H241.614L278.481 586.212L304.979 596.79C303.824 603.404 302.675 610.019 302.675 615.307C302.675 615.307 296.914 674.827 294.61 733.02L311.89 734.345C314.193 677.471 319.954 617.953 319.954 616.633C319.954 602.084 325.716 588.855 329.169 579.596C334.93 567.693 344.144 558.434 356.817 553.145L399.44 535.952L447.826 639.116H485.842L534.228 535.952L576.851 553.145C588.374 558.434 598.743 567.693 604.499 579.596C609.106 588.855 613.714 602.079 613.714 616.633C613.714 616.633 619.475 676.152 621.778 733.025L639.058 731.699C636.754 673.506 630.993 615.307 630.993 615.307C630.993 608.693 629.839 602.078 628.689 595.47L655.187 584.891L692.054 664.247H723.16L760.027 584.891L791.133 598.12C799.198 602.09 807.262 608.699 810.716 616.638C814.174 623.252 817.627 632.512 817.627 644.416C817.627 644.416 822.234 689.386 823.389 733.031L840.668 731.706C840.684 689.381 836.077 644.41 836.077 644.41L836.074 644.407Z" fill="black"/>
<path d="M779.285 733.985L776.172 677.224L793.419 675.977L796.532 732.738L779.285 733.985Z" fill="black"/>
<path d="M708.197 553.139C742.761 553.139 771.558 520.073 771.558 480.397C771.558 440.716 742.756 407.655 708.197 407.655C673.633 407.655 644.836 440.722 644.836 480.397C644.831 521.398 673.633 553.139 708.197 553.139ZM708.197 427.487C733.541 427.487 754.278 451.295 754.278 480.391C754.278 509.488 733.541 533.295 708.197 533.295C682.853 533.295 662.115 509.488 662.115 480.391C662.115 451.295 682.853 427.487 708.197 427.487Z" fill="black"/>
<path d="M156.357 733.571L139.109 732.317L142.238 675.557L159.485 676.81L156.357 733.571Z" fill="black"/>
<path d="M226.642 553.139C261.206 553.139 290.003 520.073 290.003 480.397C290.003 440.716 261.201 407.655 226.642 407.655C192.078 407.655 163.281 440.722 163.281 480.397C163.281 521.398 192.083 553.139 226.642 553.139ZM226.642 427.487C251.986 427.487 272.724 451.295 272.724 480.391C272.724 509.488 251.986 533.295 226.642 533.295C201.298 533.295 180.561 509.488 180.561 480.391C180.561 451.295 201.298 427.487 226.642 427.487Z" fill="black"/>
</svg>
