<svg width="934" height="934" viewBox="0 0 934 934" fill="none" xmlns="http://www.w3.org/2000/svg">
<path d="M492.046 604.689C497.791 610.434 501.234 617.325 501.234 624.216L518.468 624.221C518.468 611.586 512.723 600.096 502.385 590.909C494.344 584.019 485.156 580.571 474.818 579.42V547.253H457.588V579.42C447.25 580.571 438.062 585.164 430.02 590.909C419.682 600.097 413.938 611.587 413.938 624.221C413.938 636.856 419.682 648.347 430.02 657.533C439.208 665.575 452.994 670.169 466.78 670.169C475.968 670.169 485.16 673.617 492.051 679.356C497.796 685.101 501.238 691.992 501.238 698.883C501.238 705.773 497.79 713.815 492.051 718.409C479.415 729.899 455.291 729.899 442.655 718.409C436.91 712.665 433.467 705.774 433.467 698.883L415.082 698.888C415.082 711.523 420.827 723.013 431.165 732.2C439.206 739.091 448.394 742.539 458.733 744.835V775.851H475.962V744.835C486.301 743.684 495.489 739.091 503.53 732.2C513.869 723.013 519.613 711.523 519.613 698.888C519.613 686.253 513.868 674.763 503.53 665.576C494.343 657.534 480.557 652.941 466.77 652.941C457.583 652.941 448.39 649.493 441.499 643.753C435.755 638.008 432.312 631.118 432.312 624.226C432.312 617.336 435.76 609.294 441.499 604.7C455.286 593.205 478.265 593.205 492.046 604.689Z" fill="#FFB71B"/>
<path d="M673.553 326.703C578.209 326.703 503.54 361.167 503.54 405.963V500.156C492.05 497.859 479.415 495.562 466.78 495.562C461.035 495.562 454.145 495.562 448.4 496.713V184.26C448.4 139.457 370.285 105 269.2 105C168.112 105 90 139.459 90 184.26V750.58C90 795.383 168.115 829.84 269.2 829.84C314.003 829.84 355.356 822.949 388.669 810.313C411.643 822.949 439.211 829.84 466.784 829.84C497.8 829.84 526.519 820.653 551.789 806.867C583.956 821.799 627.607 829.84 673.555 829.84C768.899 829.84 843.568 795.376 843.568 750.58V405.967C843.568 361.164 768.901 326.701 673.555 326.701L673.553 326.703ZM673.553 343.937C764.303 343.937 826.34 376.104 826.34 405.968C826.34 435.832 765.46 467.999 673.553 467.999C582.804 467.999 520.767 435.832 520.767 405.968C520.767 376.099 581.647 343.937 673.553 343.937ZM269.207 122.231C364.551 122.231 431.18 155.543 431.18 184.261C431.18 214.125 364.555 246.292 269.207 246.292C173.863 246.292 108.38 212.98 108.38 184.261C108.38 154.392 173.859 122.231 269.207 122.231ZM108.38 217.575C137.099 243.996 197.979 262.377 270.353 262.377C342.723 262.377 403.604 243.997 432.327 217.575V295.689C432.327 325.553 365.701 357.72 270.353 357.72C175.009 357.72 108.38 324.408 108.38 295.689V217.575ZM108.38 331.299C135.948 357.715 196.833 376.096 269.207 376.096C341.58 376.096 402.457 357.716 431.18 331.293V412.851C431.18 442.715 364.555 474.881 269.207 474.881C173.863 474.881 107.233 441.569 107.233 412.851V331.299H108.38ZM108.38 446.168C137.099 472.589 197.979 490.971 270.353 490.971C342.723 490.971 403.604 472.591 432.327 446.168V499.007C382.931 509.345 341.577 542.657 318.603 587.46C302.52 589.757 286.436 590.908 270.357 590.908C175.013 590.908 108.384 557.596 108.384 528.877L108.38 446.168ZM108.38 562.189C137.099 588.611 197.979 606.992 270.353 606.992C284.14 606.992 297.921 605.841 310.556 604.695C303.665 623.075 300.217 641.455 300.217 662.132C300.217 677.064 302.514 690.851 305.962 703.487C294.473 704.638 281.837 705.784 270.353 705.784C175.009 705.784 108.38 672.472 108.38 643.753L108.38 562.189ZM269.207 811.456C173.863 811.456 107.233 778.144 107.233 749.425V677.056C135.952 703.477 196.832 721.859 269.207 721.859C282.993 721.859 296.775 720.708 310.561 719.562C322.051 750.578 342.728 776.999 370.296 796.526C341.577 806.864 305.963 811.458 269.208 811.458L269.207 811.456ZM317.452 662.123C317.452 579.415 385.228 512.789 466.785 512.789C549.493 512.789 616.119 580.565 616.119 662.123C616.119 744.831 548.343 811.456 466.785 811.456C384.077 811.456 317.452 744.831 317.452 662.123ZM673.559 811.456C634.501 811.456 597.741 804.565 569.028 794.227C596.596 773.549 617.273 743.685 627.612 710.372C642.544 712.669 658.628 713.82 673.56 713.82C741.336 713.82 798.768 695.44 826.347 670.169V750.581C826.341 780.441 764.311 811.456 673.56 811.456L673.559 811.456ZM673.559 696.587C658.627 696.587 644.84 695.436 631.059 694.29C633.356 683.951 634.507 673.612 634.507 663.274C634.507 639.148 628.762 616.175 619.575 595.498C636.804 597.795 655.184 598.946 673.564 598.946C741.34 598.946 798.772 580.566 826.351 555.295V635.707C826.34 664.42 764.309 696.587 673.564 696.587L673.559 696.587ZM673.559 580.565C650.585 580.565 629.908 578.268 609.231 574.821C588.553 542.654 557.537 517.383 520.777 504.747V441.57C548.345 467.991 605.783 485.221 673.564 485.221C741.345 485.221 798.772 466.841 826.351 441.57L826.345 518.534C826.345 548.398 764.315 580.565 673.572 580.565L673.559 580.565Z" fill="black"/>
</svg>
