<svg width="934" height="934" viewBox="0 0 934 934" fill="none" xmlns="http://www.w3.org/2000/svg">
<path d="M830.037 243.331C577.317 212.315 475.09 102.037 473.93 100.891L467.04 94L461.295 100.891C460.149 102.042 357.91 212.317 104.042 243.331L96 244.482L97.151 252.523C97.151 257.117 151.14 700.523 463.591 838.363L467.039 839.514L470.487 838.363C792.127 706.259 836.927 257.11 836.927 252.523L838.078 244.482L830.037 243.331ZM467.037 822.277C189.05 697.069 123.57 320.291 115.53 259.411C337.224 230.692 441.77 143.389 467.037 119.264C492.308 143.389 596.844 230.691 819.69 260.557C811.649 320.292 753.065 701.664 467.037 822.277Z" fill="black"/>
<path d="M462.436 188.191C410.742 224.951 321.142 273.196 183.289 300.764L174.102 301.915L176.398 309.957C203.966 436.317 277.486 663.77 464.732 763.703L468.18 766L471.628 763.703C662.308 668.359 733.534 438.61 758.801 309.957L759.952 301.915L753.056 300.769C614.056 273.201 524.456 224.952 472.776 188.196L468.182 184.748L462.436 188.191ZM740.422 315.701C718.594 420.232 650.824 652.275 468.182 747.621C294.729 651.132 222.356 439.768 194.782 314.555C326.886 286.987 415.329 241.039 467.022 204.279C519.861 241.039 608.316 288.139 740.422 315.705V315.701Z" fill="black"/>
<path d="M411.889 305.357L401.55 332.925H328.034C316.545 332.925 308.508 342.113 308.508 352.452V516.718C308.508 528.208 317.695 536.245 328.034 536.245H608.315C619.804 536.245 627.841 527.058 627.841 516.718L627.846 352.452C627.846 340.962 618.659 332.925 608.32 332.925H534.804L524.465 305.357C521.017 297.316 514.127 292.722 506.085 292.722H431.419C422.221 292.716 414.184 297.31 411.882 305.352L411.889 305.357ZM609.476 516.717C609.476 517.868 608.325 519.014 607.179 519.014H326.885C325.734 519.014 324.588 517.863 324.588 516.717V435.16C351.01 461.581 403.848 478.81 467.028 478.81C530.206 478.81 584.195 461.581 609.468 435.16L609.476 516.717ZM539.402 348.997H607.178C608.329 348.997 609.475 350.148 609.475 351.294V397.242C609.475 431.706 543.997 460.419 467.035 460.419C390.074 460.419 324.595 431.701 324.595 397.242V351.294C324.595 350.143 325.746 348.997 326.892 348.997H539.402ZM507.236 311.09L515.277 332.918H419.933L427.975 311.09C427.975 309.939 429.126 308.794 430.272 308.794H504.938C504.938 308.794 506.09 309.939 507.235 311.09H507.236Z" fill="#FFB71B"/>
<path d="M439.464 438.611H494.603C499.197 438.611 502.645 435.163 502.645 430.569C502.645 425.975 499.197 422.527 494.603 422.527H439.464C434.87 422.527 431.422 425.975 431.422 430.569C431.422 434.017 434.865 438.611 439.464 438.611Z" fill="#FFB71B"/>
</svg>
